<svg width="368" height="69" viewBox="0 0 368 69" fill="none" xmlns="http://www.w3.org/2000/svg">
<path d="M69.4141 25.9904L69.3655 25.949C69.3615 25.9466 69.3584 25.9435 69.3564 25.9399L39.0013 0L8.64648 25.9393C8.64299 25.9423 8.6375 25.9483 8.6375 25.9483L8.58741 25.9897C3.94575 29.9785 0.997477 35.1786 0.211308 40.7636C-0.574861 46.3485 0.846184 51.9978 4.24853 56.8135C7.65089 61.6292 12.8393 65.3348 18.989 67.3411C25.1386 69.3473 31.8967 69.5396 38.1887 67.8867C38.7182 67.7484 39.2841 67.7484 39.8136 67.8867C46.1052 69.5389 52.8628 69.3467 59.0121 67.3401C65.1614 65.3335 70.3492 61.6281 73.7514 56.8128C77.1535 51.9975 78.5747 46.3485 77.7888 40.7639C77.003 35.1792 74.0551 29.9792 69.4141 25.9904ZM19.4403 43.0957C19.2925 43.222 19.1753 43.372 19.0954 43.5368C19.0154 43.7016 18.9743 43.8784 18.9743 44.0569C19.0283 48.6351 20.5424 53.1138 23.3536 57.0114C23.4175 57.0999 23.447 57.2034 23.438 57.3069C23.4289 57.4104 23.3818 57.5088 23.3032 57.5882C23.2247 57.6676 23.1188 57.7235 23.0008 57.7483C22.8827 57.7731 22.7585 57.7654 22.6459 57.7262C20.5326 56.9666 18.6126 55.8623 16.9936 54.4753C13.6755 51.6395 11.8102 47.7941 11.8072 43.784C11.8042 39.7738 13.6637 35.9265 16.9775 33.0872L39.0013 14.269L61.024 33.0872C64.3383 35.9261 66.1985 39.7735 66.1954 43.784C66.1926 47.7941 64.3269 51.6395 61.0087 54.4753C59.3895 55.8623 57.4698 56.9666 55.3568 57.7262C55.2439 57.7654 55.1196 57.7731 55.0017 57.7483C54.8837 57.7235 54.7779 57.6672 54.6991 57.5882C54.6207 57.5088 54.5733 57.4103 54.5643 57.3065C54.5552 57.203 54.5846 57.0995 54.6485 57.0111C57.4604 53.1138 58.9753 48.6351 59.0301 44.0569C59.0301 43.8784 58.9886 43.7016 58.9082 43.5365C58.8279 43.3713 58.7103 43.2216 58.5621 43.0954L48.1453 33.6536C48.0414 33.5796 47.9109 33.5391 47.7757 33.5391C47.6409 33.5391 47.5099 33.5796 47.4065 33.6536C47.3026 33.7273 47.2328 33.8301 47.2085 33.9437C47.1842 34.0572 47.2074 34.1741 47.274 34.2746C51.3197 40.5308 47.8407 49.517 42.0391 54.4753L42.0085 54.5015C41.2078 55.1784 40.1268 55.5578 39.0005 55.5575C37.8741 55.5572 36.7934 55.177 35.9932 54.4998L35.965 54.4753C30.1613 49.517 26.6841 40.5318 30.7305 34.2759C30.797 34.1754 30.8202 34.0586 30.796 33.945C30.7718 33.8315 30.7018 33.7286 30.5981 33.655C30.4944 33.5809 30.3637 33.5404 30.2287 33.5404C30.0937 33.5404 29.9629 33.5809 29.8592 33.655L19.4403 43.0957Z" fill="#F53838"/>
<g filter="url(#filter0_d)">
<path d="M88.1657 33.72C88.1657 31.64 88.5177 29.608 89.2217 27.624C89.9577 25.608 91.0137 23.784 92.3897 22.152C93.7977 20.488 95.5097 19.176 97.5257 18.216C99.5417 17.224 101.83 16.728 104.39 16.728C107.43 16.728 110.038 17.432 112.214 18.84C114.39 20.216 116.006 21.992 117.062 24.168L113.654 26.376C112.982 24.936 112.118 23.8 111.062 22.968C110.038 22.104 108.918 21.496 107.702 21.144C106.518 20.792 105.35 20.616 104.198 20.616C102.31 20.616 100.63 21 99.1577 21.768C97.7177 22.536 96.5017 23.56 95.5097 24.84C94.5177 26.12 93.7657 27.56 93.2537 29.16C92.7737 30.728 92.5337 32.312 92.5337 33.912C92.5337 35.672 92.8217 37.368 93.3977 39C94.0057 40.632 94.8377 42.072 95.8937 43.32C96.9497 44.568 98.1977 45.56 99.6377 46.296C101.078 47.032 102.646 47.4 104.342 47.4C105.526 47.4 106.742 47.192 107.99 46.776C109.238 46.36 110.406 45.72 111.494 44.856C112.582 43.96 113.446 42.808 114.086 41.4L117.686 43.368C116.982 45.064 115.894 46.504 114.422 47.688C112.95 48.872 111.302 49.768 109.478 50.376C107.686 50.984 105.91 51.288 104.15 51.288C101.814 51.288 99.6697 50.792 97.7177 49.8C95.7657 48.776 94.0697 47.432 92.6297 45.768C91.2217 44.072 90.1177 42.184 89.3177 40.104C88.5497 37.992 88.1657 35.864 88.1657 33.72ZM119.012 43.752C119.012 42.152 119.46 40.776 120.356 39.624C121.284 38.44 122.548 37.528 124.148 36.888C125.748 36.248 127.604 35.928 129.716 35.928C130.836 35.928 132.02 36.024 133.268 36.216C134.516 36.376 135.62 36.632 136.58 36.984V35.16C136.58 33.24 136.004 31.736 134.852 30.648C133.7 29.528 132.068 28.968 129.956 28.968C128.58 28.968 127.252 29.224 125.972 29.736C124.724 30.216 123.396 30.92 121.988 31.848L120.452 28.872C122.084 27.752 123.716 26.92 125.348 26.376C126.98 25.8 128.676 25.512 130.436 25.512C133.636 25.512 136.164 26.408 138.02 28.2C139.876 29.96 140.804 32.424 140.804 35.592V46.2C140.804 47.192 141.252 47.704 142.148 47.736V51C141.732 51.064 141.364 51.112 141.044 51.144C140.756 51.176 140.516 51.192 140.324 51.192C139.332 51.192 138.58 50.92 138.068 50.376C137.588 49.832 137.316 49.256 137.252 48.648L137.156 47.064C136.068 48.472 134.644 49.56 132.884 50.328C131.124 51.096 129.38 51.48 127.652 51.48C125.988 51.48 124.5 51.144 123.188 50.472C121.876 49.768 120.852 48.84 120.116 47.688C119.38 46.504 119.012 45.192 119.012 43.752ZM135.332 45.528C135.716 45.08 136.02 44.632 136.244 44.184C136.468 43.704 136.58 43.304 136.58 42.984V39.864C134.532 39.064 132.42 38.664 130.244 38.664C128.1 38.664 126.356 39.096 125.012 39.96C123.7 40.792 123.044 41.944 123.044 43.416C123.044 44.216 123.252 45 123.668 45.768C124.116 46.504 124.756 47.112 125.588 47.592C126.452 48.072 127.508 48.312 128.756 48.312C130.068 48.312 131.316 48.056 132.5 47.544C133.684 47 134.628 46.328 135.332 45.528ZM159.367 29.64C157.255 29.672 155.383 30.216 153.751 31.272C152.151 32.296 151.015 33.72 150.343 35.544V51H146.119V25.944H150.055V31.752C150.919 30.024 152.055 28.632 153.463 27.576C154.903 26.488 156.407 25.88 157.975 25.752C158.295 25.752 158.567 25.752 158.791 25.752C159.015 25.752 159.207 25.768 159.367 25.8V29.64ZM172.642 51.48C170.146 51.48 167.938 50.888 166.018 49.704C164.098 48.52 162.594 46.936 161.506 44.952C160.418 42.968 159.874 40.808 159.874 38.472C159.874 36.104 160.418 33.944 161.506 31.992C162.594 30.04 164.098 28.472 166.018 27.288C167.97 26.104 170.194 25.512 172.69 25.512C175.218 25.512 177.41 26.12 179.266 27.336C181.154 28.52 182.61 30.088 183.634 32.04C184.69 33.96 185.218 36.04 185.218 38.28C185.218 38.984 185.186 39.528 185.122 39.912H164.338C164.466 41.544 164.914 43 165.682 44.28C166.482 45.528 167.506 46.52 168.754 47.256C170.002 47.96 171.346 48.312 172.786 48.312C174.322 48.312 175.762 47.928 177.106 47.16C178.482 46.392 179.426 45.384 179.938 44.136L183.586 45.144C182.786 47 181.394 48.52 179.41 49.704C177.426 50.888 175.17 51.48 172.642 51.48ZM164.194 36.984H181.282C181.154 35.352 180.69 33.912 179.89 32.664C179.09 31.416 178.066 30.44 176.818 29.736C175.57 29.032 174.194 28.68 172.69 28.68C171.218 28.68 169.858 29.032 168.61 29.736C167.362 30.44 166.338 31.416 165.538 32.664C164.77 33.912 164.322 35.352 164.194 36.984ZM201.625 57.096V48.984H186.217V45.24L202.969 23.592H205.849V45.144H210.073V48.984H205.849V57.096H201.625ZM190.585 45.144H202.057V30.12L190.585 45.144ZM224.839 16.92H228.487L242.407 51H237.799L233.767 41.016H219.463L215.479 51H210.871L224.839 16.92ZM232.807 37.656L226.663 21.912L220.327 37.656H232.807ZM266.587 51H262.363V36.984C262.363 34.328 261.947 32.392 261.115 31.176C260.315 29.928 259.083 29.304 257.419 29.304C256.267 29.304 255.115 29.592 253.963 30.168C252.843 30.744 251.835 31.528 250.939 32.52C250.075 33.48 249.451 34.6 249.067 35.88V51H244.843V25.944H248.683V31.32C249.675 29.56 251.099 28.152 252.955 27.096C254.843 26.04 256.891 25.512 259.099 25.512C261.051 25.512 262.555 25.976 263.611 26.904C264.699 27.8 265.467 29.048 265.915 30.648C266.363 32.216 266.587 34.008 266.587 36.024V51ZM271.715 21.24V15.96H275.939V21.24H271.715ZM271.715 51V25.944H275.939V51H271.715ZM319.114 51H314.89V36.984C314.89 34.36 314.458 32.424 313.594 31.176C312.762 29.928 311.514 29.304 309.85 29.304C308.154 29.304 306.618 29.928 305.242 31.176C303.866 32.392 302.89 33.976 302.314 35.928V51H298.09V36.984C298.09 34.328 297.674 32.392 296.842 31.176C296.01 29.928 294.762 29.304 293.098 29.304C291.434 29.304 289.898 29.912 288.49 31.128C287.114 32.312 286.138 33.896 285.562 35.88V51H281.338V25.944H285.178V31.32C286.202 29.464 287.53 28.04 289.162 27.048C290.794 26.024 292.634 25.512 294.682 25.512C296.762 25.512 298.426 26.088 299.674 27.24C300.922 28.36 301.69 29.816 301.978 31.608C304.218 27.544 307.402 25.512 311.53 25.512C313.45 25.512 314.954 25.976 316.042 26.904C317.162 27.8 317.946 29.048 318.394 30.648C318.874 32.216 319.114 34.008 319.114 36.024V51ZM322.274 43.752C322.274 42.152 322.722 40.776 323.618 39.624C324.546 38.44 325.81 37.528 327.41 36.888C329.01 36.248 330.866 35.928 332.978 35.928C334.098 35.928 335.282 36.024 336.53 36.216C337.778 36.376 338.882 36.632 339.842 36.984V35.16C339.842 33.24 339.266 31.736 338.114 30.648C336.962 29.528 335.33 28.968 333.218 28.968C331.842 28.968 330.514 29.224 329.234 29.736C327.986 30.216 326.658 30.92 325.25 31.848L323.714 28.872C325.346 27.752 326.978 26.92 328.61 26.376C330.242 25.8 331.938 25.512 333.698 25.512C336.898 25.512 339.426 26.408 341.282 28.2C343.138 29.96 344.066 32.424 344.066 35.592V46.2C344.066 47.192 344.514 47.704 345.41 47.736V51C344.994 51.064 344.626 51.112 344.306 51.144C344.018 51.176 343.778 51.192 343.586 51.192C342.594 51.192 341.842 50.92 341.33 50.376C340.85 49.832 340.578 49.256 340.514 48.648L340.418 47.064C339.33 48.472 337.906 49.56 336.146 50.328C334.386 51.096 332.642 51.48 330.914 51.48C329.25 51.48 327.762 51.144 326.45 50.472C325.138 49.768 324.114 48.84 323.378 47.688C322.642 46.504 322.274 45.192 322.274 43.752ZM338.594 45.528C338.978 45.08 339.282 44.632 339.506 44.184C339.73 43.704 339.842 43.304 339.842 42.984V39.864C337.794 39.064 335.682 38.664 333.506 38.664C331.362 38.664 329.618 39.096 328.274 39.96C326.962 40.792 326.306 41.944 326.306 43.416C326.306 44.216 326.514 45 326.93 45.768C327.378 46.504 328.018 47.112 328.85 47.592C329.714 48.072 330.77 48.312 332.018 48.312C333.33 48.312 334.578 48.056 335.762 47.544C336.946 47 337.89 46.328 338.594 45.528ZM349.476 15.96H353.7V44.52C353.7 45.896 353.892 46.744 354.276 47.064C354.66 47.384 355.124 47.544 355.668 47.544C356.34 47.544 356.98 47.48 357.588 47.352C358.196 47.192 358.708 47.032 359.124 46.872L359.796 50.328C359.092 50.616 358.26 50.856 357.3 51.048C356.34 51.24 355.492 51.336 354.756 51.336C353.124 51.336 351.828 50.872 350.868 49.944C349.94 49.016 349.476 47.72 349.476 46.056V15.96Z" fill="#261A1A"/>
</g>
<defs>
<filter id="filter0_d" x="88.0258" y="15.76" width="276.17" height="45.676" filterUnits="userSpaceOnUse" color-interpolation-filters="sRGB">
<feFlood flood-opacity="0" result="BackgroundImageFix"/>
<feColorMatrix in="SourceAlpha" type="matrix" values="0 0 0 0 0 0 0 0 0 0 0 0 0 0 0 0 0 0 127 0" result="hardAlpha"/>
<feOffset dx="2.13" dy="2.07"/>
<feGaussianBlur stdDeviation="1.135"/>
<feColorMatrix type="matrix" values="0 0 0 0 0 0 0 0 0 0 0 0 0 0 0 0 0 0 1 0"/>
<feBlend mode="normal" in2="BackgroundImageFix" result="effect1_dropShadow"/>
<feBlend mode="normal" in="SourceGraphic" in2="effect1_dropShadow" result="shape"/>
</filter>
</defs>
</svg>
